<svg xmlns="http://www.w3.org/2000/svg" width="71" height="66" viewBox="0 0 71 66">
  <metadata><?xpacket begin="﻿" id="W5M0MpCehiHzreSzNTczkc9d"?>
<x:xmpmeta xmlns:x="adobe:ns:meta/" x:xmptk="Adobe XMP Core 5.6-c138 79.159824, 2016/09/14-01:09:01        ">
   <rdf:RDF xmlns:rdf="http://www.w3.org/1999/02/22-rdf-syntax-ns#">
      <rdf:Description rdf:about=""/>
   </rdf:RDF>
</x:xmpmeta>
                                                                                                    
                                                                                                    
                                                                                                    
                                                                                                    
                                                                                                    
                                                                                                    
                                                                                                    
                                                                                                    
                                                                                                    
                                                                                                    
                                                                                                    
                                                                                                    
                                                                                                    
                                                                                                    
                                                                                                    
                                                                                                    
                                                                                                    
                                                                                                    
                                                                                                    
                                                                                                    
                           
<?xpacket end="w"?></metadata>
<defs>
    <style>
      .cls-1 {
        fill: #00be9c;
        fill-rule: evenodd;
      }
    </style>
  </defs>
  <path id="handshake" class="cls-1" d="M1352.5,2424a2.078,2.078,0,0,0-2.08,2.08v6.24a2.08,2.08,0,0,0,4.16,0v-6.24A2.078,2.078,0,0,0,1352.5,2424Zm-11.01,13.09-4.16-4.16a2.082,2.082,0,1,0-2.94,2.95l4.16,4.16A2.082,2.082,0,1,0,1341.49,2437.09Zm29.12-4.16a2.082,2.082,0,0,0-2.94,0l-4.16,4.16a2.082,2.082,0,0,0,2.94,2.95l4.16-4.16A2.094,2.094,0,0,0,1370.61,2432.93Zm15.31,20.2h-6.38v29.13h6.38a2.078,2.078,0,0,0,2.08-2.08v-24.97A2.078,2.078,0,0,0,1385.92,2453.13Zm-66.84,0a2.078,2.078,0,0,0-2.08,2.08v24.97a2.078,2.078,0,0,0,2.08,2.08h6.38v-29.13h-6.38Zm31.83,2.08a4.13,4.13,0,0,0-3.72,2.3l-6.33,12.67a8.167,8.167,0,0,0,3.33.71,8.276,8.276,0,0,0,7.43-4.61l1.37-2.74h4.03a4.164,4.164,0,0,1,2.94,1.22l15.42,15.42v-24.97h-24.47Zm6.11,12.49h-1.46l-0.12.24a12.655,12.655,0,0,1-10.17,7.06c-3.22.27-5.46-.66-8.1-1.87a2.086,2.086,0,0,1-1.02-2.83l7.32-14.65a8.318,8.318,0,0,1,7.44-4.6h8.98a10.171,10.171,0,0,0,.93-4.16,2.078,2.078,0,0,0-2.08-2.08h-16.15a6.235,6.235,0,0,0-5.58,3.45l-1.86,3.72a2.065,2.065,0,0,1-1.86,1.15h-3.67v29.13h9.54l5.89,5.9a6.167,6.167,0,0,0,6.29,1.54l17.77-5.59a6,6,0,0,0,2.68-1.63Z" transform="translate(-1317 -2424)"/>
</svg>
