<svg xmlns="http://www.w3.org/2000/svg" width="75" height="66" viewBox="0 0 75 66">
  <metadata><?xpacket begin="﻿" id="W5M0MpCehiHzreSzNTczkc9d"?>
<x:xmpmeta xmlns:x="adobe:ns:meta/" x:xmptk="Adobe XMP Core 5.6-c138 79.159824, 2016/09/14-01:09:01        ">
   <rdf:RDF xmlns:rdf="http://www.w3.org/1999/02/22-rdf-syntax-ns#">
      <rdf:Description rdf:about=""/>
   </rdf:RDF>
</x:xmpmeta>
                                                                                                    
                                                                                                    
                                                                                                    
                                                                                                    
                                                                                                    
                                                                                                    
                                                                                                    
                                                                                                    
                                                                                                    
                                                                                                    
                                                                                                    
                                                                                                    
                                                                                                    
                                                                                                    
                                                                                                    
                                                                                                    
                                                                                                    
                                                                                                    
                                                                                                    
                                                                                                    
                           
<?xpacket end="w"?></metadata>
<defs>
    <style>
      .cls-1 {
        fill: #00be9c;
        fill-rule: evenodd;
      }
    </style>
  </defs>
  <path id="money" class="cls-1" d="M1367.17,2622a19.986,19.986,0,1,0,19.83,19.99A19.914,19.914,0,0,0,1367.17,2622Zm0,35.34a15.356,15.356,0,1,1,15.23-15.35A15.292,15.292,0,0,1,1367.17,2657.34Zm15.8,14.32a50.286,50.286,0,0,1-15.8,5.43c-5.15.81-14.83-1.15-14.83-3.47,0-.87,8.49,2.17,13.63.79,3.94-1.06,3.38-4.78,1.23-5.27-2.13-.48-14.61-5.09-19.94-5.25-2.51-.07-8.71.88-11.71,1.37-1.02.17-1.67,0.15-1.73,1.14-0.3,4.61-.89,14.03-1.21,18.95-0.01.1,0.14,1.5,1.28,0.52,1.25-1.08,3.01-2.27,4.64-1.9,2.55,0.58,24.61,4.65,27.65,3.94,4.36-1.02,16.68-8.38,19.04-10.67C1388.89,2673.7,1386.04,2669.95,1382.97,2671.66Zm-55.24-6.58-11.56-.57a2.068,2.068,0,0,0-2.02,1.5l-2.11,19.23a1.269,1.269,0,0,0,1.22,1.65h12.81a1.7,1.7,0,0,0,1.75-1.57l1.41-18.52A1.594,1.594,0,0,0,1327.73,2665.08Zm-6.81,19.26a3.22,3.22,0,1,1,3.2-3.22A3.205,3.205,0,0,1,1320.92,2684.34Zm39.87-37.36h2.35v2.03a0.324,0.324,0,0,0,.09.24,0.332,0.332,0,0,0,.25.1h1.75a0.29,0.29,0,0,0,.23-0.1,0.3,0.3,0,0,0,.1-0.24v-2.03h5.3a0.324,0.324,0,0,0,.24-0.09,0.374,0.374,0,0,0,.1-0.25v-1.35a0.331,0.331,0,0,0-.1-0.24,0.3,0.3,0,0,0-.24-0.1h-5.3v-1.24h3.57a4.686,4.686,0,0,0,3.42-1.29,4.834,4.834,0,0,0,0-6.66,4.686,4.686,0,0,0-3.42-1.29h-5.65a0.312,0.312,0,0,0-.34.34v6.64h-2.35a0.331,0.331,0,0,0-.24.1,0.358,0.358,0,0,0-.09.24v1.58a0.324,0.324,0,0,0,.09.24,0.331,0.331,0,0,0,.24.1h2.35v1.24h-2.35a0.3,0.3,0,0,0-.24.1,0.324,0.324,0,0,0-.09.24v1.35a0.366,0.366,0,0,0,.09.25A0.324,0.324,0,0,0,1360.79,2646.98Zm4.77-10.26h3.36a2.491,2.491,0,0,1,1.79.65,2.5,2.5,0,0,1,0,3.43,2.45,2.45,0,0,1-1.79.65h-3.36v-4.73Z" transform="translate(-1312 -2622)"/>
</svg>
