<svg xmlns="http://www.w3.org/2000/svg" width="79" height="53" viewBox="0 0 79 53">
  <metadata><?xpacket begin="﻿" id="W5M0MpCehiHzreSzNTczkc9d"?>
<x:xmpmeta xmlns:x="adobe:ns:meta/" x:xmptk="Adobe XMP Core 5.6-c138 79.159824, 2016/09/14-01:09:01        ">
   <rdf:RDF xmlns:rdf="http://www.w3.org/1999/02/22-rdf-syntax-ns#">
      <rdf:Description rdf:about=""/>
   </rdf:RDF>
</x:xmpmeta>
                                                                                                    
                                                                                                    
                                                                                                    
                                                                                                    
                                                                                                    
                                                                                                    
                                                                                                    
                                                                                                    
                                                                                                    
                                                                                                    
                                                                                                    
                                                                                                    
                                                                                                    
                                                                                                    
                                                                                                    
                                                                                                    
                                                                                                    
                                                                                                    
                                                                                                    
                                                                                                    
                           
<?xpacket end="w"?></metadata>
<defs>
    <style>
      .cls-1 {
        fill: #00be9c;
        fill-rule: evenodd;
      }
    </style>
  </defs>
  <path id="pack" class="cls-1" d="M573.312,2448.74l-4.676,11.36a1.136,1.136,0,0,1-.934.69l-23.919,2.1a1.114,1.114,0,0,0-1.017,1.14l0.487,18.77a1.121,1.121,0,0,0,.885,1.06l28.159,5.92a9.8,9.8,0,0,0,2.088.22v-41.04C574.385,2447.41,573.9,2447.31,573.312,2448.74Zm-3.274,35.01-10.571-1.7v-5.54h10.571v7.24Zm-4.623-25.66-28.189,2.84a1.111,1.111,0,0,1-1.121-1.58l7.506-16.04a1.112,1.112,0,0,1,.808-0.62l30.974-5.69-9.071,20.43A1.109,1.109,0,0,1,565.415,2458.09Zm41.8,4.8-23.92-2.1a1.136,1.136,0,0,1-.933-0.69l-4.676-11.36c-0.59-1.43-1.073-1.33-1.073.22V2490a9.8,9.8,0,0,0,2.088-.22l28.159-5.92a1.121,1.121,0,0,0,.885-1.06l0.486-18.77A1.113,1.113,0,0,0,607.217,2462.89Zm-9.844,10.02-1.321.04-0.027,8.31a0.92,0.92,0,0,1-.836.79l-2.165.31a0.694,0.694,0,0,1-.9-0.57l0.02-8.73-1.511.04c-0.735.02-1.2-.57-0.825-1.06l3.593-4.68a1,1,0,0,1,1.5.07l3.154,4.49A0.674,0.674,0,0,1,597.373,2472.91Zm16.4-11.98-28.189-2.84a1.111,1.111,0,0,1-.907-0.66l-9.07-20.43,30.974,5.69a1.112,1.112,0,0,1,.808.62l7.506,16.04A1.112,1.112,0,0,1,613.773,2460.93Z" transform="translate(-536 -2437)"/>
</svg>
