<svg xmlns="http://www.w3.org/2000/svg" width="65" height="65" viewBox="0 0 65 65">
  <metadata><?xpacket begin="﻿" id="W5M0MpCehiHzreSzNTczkc9d"?>
<x:xmpmeta xmlns:x="adobe:ns:meta/" x:xmptk="Adobe XMP Core 5.6-c138 79.159824, 2016/09/14-01:09:01        ">
   <rdf:RDF xmlns:rdf="http://www.w3.org/1999/02/22-rdf-syntax-ns#">
      <rdf:Description rdf:about=""/>
   </rdf:RDF>
</x:xmpmeta>
                                                                                                    
                                                                                                    
                                                                                                    
                                                                                                    
                                                                                                    
                                                                                                    
                                                                                                    
                                                                                                    
                                                                                                    
                                                                                                    
                                                                                                    
                                                                                                    
                                                                                                    
                                                                                                    
                                                                                                    
                                                                                                    
                                                                                                    
                                                                                                    
                                                                                                    
                                                                                                    
                           
<?xpacket end="w"?></metadata>
<defs>
    <style>
      .cls-1 {
        fill: #00be9c;
        fill-rule: evenodd;
      }
    </style>
  </defs>
  <path id="percent" class="cls-1" d="M583.883,2662.12a3.77,3.77,0,1,0,3.773,3.77A3.775,3.775,0,0,0,583.883,2662.12Zm-18.808-18.81a3.775,3.775,0,1,0,3.773,3.78A3.778,3.778,0,0,0,565.075,2643.31ZM574.5,2624a32.5,32.5,0,1,0,32.5,32.5A32.537,32.537,0,0,0,574.5,2624Zm-9.426,15.25a7.835,7.835,0,1,1-7.84,7.84A7.844,7.844,0,0,1,565.075,2639.25Zm-2.383,31.93a2.031,2.031,0,0,1-2.875-2.87l26.491-26.49a2.031,2.031,0,0,1,2.874,2.87Zm21.191,2.55a7.84,7.84,0,1,1,7.839-7.84A7.851,7.851,0,0,1,583.883,2673.73Z" transform="translate(-542 -2624)"/>
</svg>
