<svg xmlns="http://www.w3.org/2000/svg" width="67" height="67" viewBox="0 0 67 67">
  <metadata><?xpacket begin="﻿" id="W5M0MpCehiHzreSzNTczkc9d"?>
<x:xmpmeta xmlns:x="adobe:ns:meta/" x:xmptk="Adobe XMP Core 5.6-c138 79.159824, 2016/09/14-01:09:01        ">
   <rdf:RDF xmlns:rdf="http://www.w3.org/1999/02/22-rdf-syntax-ns#">
      <rdf:Description rdf:about=""/>
   </rdf:RDF>
</x:xmpmeta>
                                                                                                    
                                                                                                    
                                                                                                    
                                                                                                    
                                                                                                    
                                                                                                    
                                                                                                    
                                                                                                    
                                                                                                    
                                                                                                    
                                                                                                    
                                                                                                    
                                                                                                    
                                                                                                    
                                                                                                    
                                                                                                    
                                                                                                    
                                                                                                    
                                                                                                    
                                                                                                    
                           
<?xpacket end="w"?></metadata>
<defs>
    <style>
      .cls-1 {
        fill: #00be9c;
        fill-rule: evenodd;
      }
    </style>
  </defs>
  <path id="teach" class="cls-1" d="M985.98,2622H962.426a6.235,6.235,0,0,0-6.02,6.15v19.63a6.008,6.008,0,0,0,6.02,5.89H985.98a6.008,6.008,0,0,0,6.02-5.89v-19.63A6.235,6.235,0,0,0,985.98,2622Zm-17.666,21.85a1.963,1.963,0,1,1-3.925,0v-3.92a1.963,1.963,0,1,1,3.925,0v3.92Zm7.852,0a1.963,1.963,0,1,1-3.926,0V2636a1.963,1.963,0,0,1,3.926,0v7.85Zm7.851,0a1.963,1.963,0,1,1-3.925,0v-11.77a1.963,1.963,0,1,1,3.925,0v11.77Zm-43.314-9.81a7.85,7.85,0,1,0,7.852,7.85A7.858,7.858,0,0,0,940.7,2634.04Zm6.886,17.36a11.579,11.579,0,0,1-13.772,0,15.7,15.7,0,0,0-8.648,11.74,1.971,1.971,0,0,0,.71,1.8,11.756,11.756,0,0,1,21.694-.25,11.8,11.8,0,0,1,7.049-6.43A15.924,15.924,0,0,0,947.589,2651.4Zm-10.812,10.12a7.85,7.85,0,1,0,7.852,7.85A7.858,7.858,0,0,0,936.777,2661.52Zm21.592,0a7.85,7.85,0,1,0,0,15.7A7.851,7.851,0,1,0,958.369,2661.52Zm21.723,0a7.85,7.85,0,1,0,0,15.7A7.851,7.851,0,1,0,980.092,2661.52Zm-37.426,23.55a15.349,15.349,0,0,1,1.521-6.62,11.578,11.578,0,0,1-16.124-1.23,11.7,11.7,0,0,0-3.063,7.85v1.97a1.963,1.963,0,0,0,1.963,1.96h16.064a5.848,5.848,0,0,1-.361-1.96v-1.97Zm24.548-7.85a12,12,0,0,1-8.845,3.93,11.716,11.716,0,0,1-8.714-3.93,11.7,11.7,0,0,0-3.063,7.85v1.97a1.963,1.963,0,0,0,1.963,1.96h19.759a1.963,1.963,0,0,0,1.963-1.96v-1.97A11.7,11.7,0,0,0,967.214,2677.22Zm21.723,0a12,12,0,0,1-8.845,3.93,11.669,11.669,0,0,1-7.41-2.7,15.335,15.335,0,0,1,1.521,6.62v1.97a5.848,5.848,0,0,1-.361,1.96h16.2a1.963,1.963,0,0,0,1.963-1.96v-1.97A11.7,11.7,0,0,0,988.937,2677.22Z" transform="translate(-925 -2622)"/>
</svg>
