<svg xmlns="http://www.w3.org/2000/svg" width="54" height="66" viewBox="0 0 54 66">
  <metadata><?xpacket begin="﻿" id="W5M0MpCehiHzreSzNTczkc9d"?>
<x:xmpmeta xmlns:x="adobe:ns:meta/" x:xmptk="Adobe XMP Core 5.6-c138 79.159824, 2016/09/14-01:09:01        ">
   <rdf:RDF xmlns:rdf="http://www.w3.org/1999/02/22-rdf-syntax-ns#">
      <rdf:Description rdf:about=""/>
   </rdf:RDF>
</x:xmpmeta>
                                                                                                    
                                                                                                    
                                                                                                    
                                                                                                    
                                                                                                    
                                                                                                    
                                                                                                    
                                                                                                    
                                                                                                    
                                                                                                    
                                                                                                    
                                                                                                    
                                                                                                    
                                                                                                    
                                                                                                    
                                                                                                    
                                                                                                    
                                                                                                    
                                                                                                    
                                                                                                    
                           
<?xpacket end="w"?></metadata>
<defs>
    <style>
      .cls-1 {
        fill: #00be9c;
        fill-rule: evenodd;
      }
    </style>
  </defs>
  <path id="watch" class="cls-1" d="M977.765,2430.59a2.24,2.24,0,0,0-3.052.82l-2.232,3.83,7.734,4.44,2.232-3.84a2.212,2.212,0,0,0-.819-3.03Zm-33.794,0-3.863,2.22a2.215,2.215,0,0,0-.82,3.03l2.232,3.84,7.735-4.44-2.232-3.83A2.241,2.241,0,0,0,943.971,2430.59ZM961,2433.98a29.982,29.982,0,0,1,4.154.33v-3.59l2.856-.02v-4.64a2.067,2.067,0,0,0-2.077-2.06h-9.844a2.067,2.067,0,0,0-2.077,2.06v4.64l2.834,0.02v3.59A29.982,29.982,0,0,1,961,2433.98Zm0,11.97a17.24,17.24,0,1,0,17.362,17.24A17.3,17.3,0,0,0,961,2445.95Zm2.5,20.4c-1,.91-3.012.34-4.483-1.26s-1.851-3.64-.846-4.55,9.991-5.83,12.739-6.22C970.259,2457,964.5,2465.44,963.5,2466.35Zm-2.5-29.98a26.816,26.816,0,1,0,27,26.82A26.912,26.912,0,0,0,961,2436.37Zm0,48.57a21.756,21.756,0,1,1,21.908-21.75A21.83,21.83,0,0,1,961,2484.94Z" transform="translate(-934 -2424)"/>
</svg>
